<svg xmlns="http://www.w3.org/2000/svg" version="1.1" xmlns:xlink="http://www.w3.org/1999/xlink" xmlns:svgjs="http://svgjs.dev/svgjs" width="1440" height="560" preserveAspectRatio="none" viewBox="0 0 1440 560"><g mask="url(&quot;#SvgjsMask1006&quot;)" fill="none"><rect width="1440" height="560" x="0" y="0" fill="rgba(255, 255, 255, 1)"></rect><path d="M-91.95 340.79L-91.95 340.79" stroke="rgba(239, 92, 84, 1)" stroke-width="1.5"></path><path d="M-91.95 340.79L62.32 396.16" stroke="rgba(239, 92, 84, 1)" stroke-width="1.5"></path><path d="M-91.95 340.79L-95.52 549.03" stroke="rgba(239, 92, 84, 1)" stroke-width="1.5"></path><path d="M-91.95 340.79L49.41 551.96" stroke="rgba(239, 92, 84, 1)" stroke-width="1.5"></path><path d="M-91.95 340.79L-81.66 651.61" stroke="rgba(239, 92, 84, 1)" stroke-width="1.5"></path><path d="M-91.95 340.79L242.6 396.14" stroke="rgba(239, 92, 84, 1)" stroke-width="1.5"></path><path d="M-95.52 549.03L-95.52 549.03" stroke="rgba(239, 92, 84, 1)" stroke-width="1.5"></path><path d="M-95.52 549.03L-81.66 651.61" stroke="rgba(239, 92, 84, 1)" stroke-width="1.5"></path><path d="M-95.52 549.03L49.41 551.96" stroke="rgba(239, 92, 84, 1)" stroke-width="1.5"></path><path d="M-95.52 549.03L48.61 661.79" stroke="rgba(239, 92, 84, 1)" stroke-width="1.5"></path><path d="M-81.66 651.61L-81.66 651.61" stroke="rgba(239, 92, 84, 1)" stroke-width="1.5"></path><path d="M-81.66 651.61L48.61 661.79" stroke="rgba(239, 92, 84, 1)" stroke-width="1.5"></path><path d="M62.32 396.16L62.32 396.16" stroke="rgba(239, 92, 84, 1)" stroke-width="1.5"></path><path d="M62.32 396.16L49.41 551.96" stroke="rgba(239, 92, 84, 1)" stroke-width="1.5"></path><path d="M62.32 396.16L242.6 396.14" stroke="rgba(239, 92, 84, 1)" stroke-width="1.5"></path><path d="M62.32 396.16L202.69 537.37" stroke="rgba(239, 92, 84, 1)" stroke-width="1.5"></path><path d="M62.32 396.16L-95.52 549.03" stroke="rgba(239, 92, 84, 1)" stroke-width="1.5"></path><path d="M62.32 396.16L48.61 661.79" stroke="rgba(239, 92, 84, 1)" stroke-width="1.5"></path><path d="M49.41 551.96L49.41 551.96" stroke="rgba(239, 92, 84, 1)" stroke-width="1.5"></path><path d="M49.41 551.96L48.61 661.79" stroke="rgba(239, 92, 84, 1)" stroke-width="1.5"></path><path d="M49.41 551.96L202.69 537.37" stroke="rgba(239, 92, 84, 1)" stroke-width="1.5"></path><path d="M48.61 661.79L48.61 661.79" stroke="rgba(239, 92, 84, 1)" stroke-width="1.5"></path><path d="M48.61 661.79L188.49 687.06" stroke="rgba(239, 92, 84, 1)" stroke-width="1.5"></path><path d="M242.6 396.14L242.6 396.14" stroke="rgba(239, 92, 84, 1)" stroke-width="1.5"></path><path d="M242.6 396.14L202.69 537.37" stroke="rgba(239, 92, 84, 1)" stroke-width="1.5"></path><path d="M242.6 396.14L378.71 493.27" stroke="rgba(239, 92, 84, 1)" stroke-width="1.5"></path><path d="M202.69 537.37L202.69 537.37" stroke="rgba(239, 92, 84, 1)" stroke-width="1.5"></path><path d="M202.69 537.37L188.49 687.06" stroke="rgba(239, 92, 84, 1)" stroke-width="1.5"></path><path d="M202.69 537.37L378.71 493.27" stroke="rgba(239, 92, 84, 1)" stroke-width="1.5"></path><path d="M202.69 537.37L48.61 661.79" stroke="rgba(239, 92, 84, 1)" stroke-width="1.5"></path><path d="M188.49 687.06L188.49 687.06" stroke="rgba(239, 92, 84, 1)" stroke-width="1.5"></path><path d="M188.49 687.06L345.65 684.88" stroke="rgba(239, 92, 84, 1)" stroke-width="1.5"></path><path d="M378.71 493.27L378.71 493.27" stroke="rgba(239, 92, 84, 1)" stroke-width="1.5"></path><path d="M378.71 493.27L345.65 684.88" stroke="rgba(239, 92, 84, 1)" stroke-width="1.5"></path><path d="M378.71 493.27L515.96 656.97" stroke="rgba(239, 92, 84, 1)" stroke-width="1.5"></path><path d="M378.71 493.27L533.74 341.09" stroke="rgba(239, 92, 84, 1)" stroke-width="1.5"></path><path d="M378.71 493.27L188.49 687.06" stroke="rgba(239, 92, 84, 1)" stroke-width="1.5"></path><path d="M345.65 684.88L345.65 684.88" stroke="rgba(239, 92, 84, 1)" stroke-width="1.5"></path><path d="M345.65 684.88L515.96 656.97" stroke="rgba(239, 92, 84, 1)" stroke-width="1.5"></path><path d="M345.65 684.88L202.69 537.37" stroke="rgba(239, 92, 84, 1)" stroke-width="1.5"></path><path d="M533.74 341.09L533.74 341.09" stroke="rgba(239, 92, 84, 1)" stroke-width="1.5"></path><path d="M533.74 341.09L648.21 226.47" stroke="rgba(239, 92, 84, 1)" stroke-width="1.5"></path><path d="M533.74 341.09L684.68 402.21" stroke="rgba(239, 92, 84, 1)" stroke-width="1.5"></path><path d="M515.96 656.97L515.96 656.97" stroke="rgba(239, 92, 84, 1)" stroke-width="1.5"></path><path d="M515.96 656.97L674.02 711.68" stroke="rgba(239, 92, 84, 1)" stroke-width="1.5"></path><path d="M515.96 656.97L682.21 515.06" stroke="rgba(239, 92, 84, 1)" stroke-width="1.5"></path><path d="M515.96 656.97L813.4 661.5" stroke="rgba(239, 92, 84, 1)" stroke-width="1.5"></path><path d="M648.21 226.47L648.21 226.47" stroke="rgba(239, 92, 84, 1)" stroke-width="1.5"></path><path d="M648.21 226.47L684.68 402.21" stroke="rgba(239, 92, 84, 1)" stroke-width="1.5"></path><path d="M648.21 226.47L860.08 240.16" stroke="rgba(239, 92, 84, 1)" stroke-width="1.5"></path><path d="M684.68 402.21L684.68 402.21" stroke="rgba(239, 92, 84, 1)" stroke-width="1.5"></path><path d="M684.68 402.21L682.21 515.06" stroke="rgba(239, 92, 84, 1)" stroke-width="1.5"></path><path d="M684.68 402.21L837.97 407.55" stroke="rgba(239, 92, 84, 1)" stroke-width="1.5"></path><path d="M684.68 402.21L842.96 540.42" stroke="rgba(239, 92, 84, 1)" stroke-width="1.5"></path><path d="M682.21 515.06L682.21 515.06" stroke="rgba(239, 92, 84, 1)" stroke-width="1.5"></path><path d="M682.21 515.06L842.96 540.42" stroke="rgba(239, 92, 84, 1)" stroke-width="1.5"></path><path d="M682.21 515.06L837.97 407.55" stroke="rgba(239, 92, 84, 1)" stroke-width="1.5"></path><path d="M674.02 711.68L674.02 711.68" stroke="rgba(239, 92, 84, 1)" stroke-width="1.5"></path><path d="M674.02 711.68L813.4 661.5" stroke="rgba(239, 92, 84, 1)" stroke-width="1.5"></path><path d="M674.02 711.68L682.21 515.06" stroke="rgba(239, 92, 84, 1)" stroke-width="1.5"></path><path d="M853.15 84.65L853.15 84.65" stroke="rgba(239, 92, 84, 1)" stroke-width="1.5"></path><path d="M853.15 84.65L860.08 240.16" stroke="rgba(239, 92, 84, 1)" stroke-width="1.5"></path><path d="M853.15 84.65L1009.92 65.9" stroke="rgba(239, 92, 84, 1)" stroke-width="1.5"></path><path d="M853.15 84.65L981.26 -42.47" stroke="rgba(239, 92, 84, 1)" stroke-width="1.5"></path><path d="M860.08 240.16L860.08 240.16" stroke="rgba(239, 92, 84, 1)" stroke-width="1.5"></path><path d="M860.08 240.16L955.69 254.79" stroke="rgba(239, 92, 84, 1)" stroke-width="1.5"></path><path d="M860.08 240.16L837.97 407.55" stroke="rgba(239, 92, 84, 1)" stroke-width="1.5"></path><path d="M860.08 240.16L941.96 395.61" stroke="rgba(239, 92, 84, 1)" stroke-width="1.5"></path><path d="M837.97 407.55L837.97 407.55" stroke="rgba(239, 92, 84, 1)" stroke-width="1.5"></path><path d="M837.97 407.55L941.96 395.61" stroke="rgba(239, 92, 84, 1)" stroke-width="1.5"></path><path d="M837.97 407.55L842.96 540.42" stroke="rgba(239, 92, 84, 1)" stroke-width="1.5"></path><path d="M837.97 407.55L955.69 254.79" stroke="rgba(239, 92, 84, 1)" stroke-width="1.5"></path><path d="M842.96 540.42L842.96 540.42" stroke="rgba(239, 92, 84, 1)" stroke-width="1.5"></path><path d="M842.96 540.42L813.4 661.5" stroke="rgba(239, 92, 84, 1)" stroke-width="1.5"></path><path d="M813.4 661.5L813.4 661.5" stroke="rgba(239, 92, 84, 1)" stroke-width="1.5"></path><path d="M813.4 661.5L682.21 515.06" stroke="rgba(239, 92, 84, 1)" stroke-width="1.5"></path><path d="M813.4 661.5L1010.44 543.34" stroke="rgba(239, 92, 84, 1)" stroke-width="1.5"></path><path d="M813.4 661.5L837.97 407.55" stroke="rgba(239, 92, 84, 1)" stroke-width="1.5"></path><path d="M981.26 -42.47L981.26 -42.47" stroke="rgba(239, 92, 84, 1)" stroke-width="1.5"></path><path d="M981.26 -42.47L1009.92 65.9" stroke="rgba(239, 92, 84, 1)" stroke-width="1.5"></path><path d="M1009.92 65.9L1009.92 65.9" stroke="rgba(239, 92, 84, 1)" stroke-width="1.5"></path><path d="M1009.92 65.9L1128.35 74.94" stroke="rgba(239, 92, 84, 1)" stroke-width="1.5"></path><path d="M1009.92 65.9L1128.64 -51.33" stroke="rgba(239, 92, 84, 1)" stroke-width="1.5"></path><path d="M1009.92 65.9L955.69 254.79" stroke="rgba(239, 92, 84, 1)" stroke-width="1.5"></path><path d="M955.69 254.79L955.69 254.79" stroke="rgba(239, 92, 84, 1)" stroke-width="1.5"></path><path d="M955.69 254.79L941.96 395.61" stroke="rgba(239, 92, 84, 1)" stroke-width="1.5"></path><path d="M941.96 395.61L941.96 395.61" stroke="rgba(239, 92, 84, 1)" stroke-width="1.5"></path><path d="M941.96 395.61L1010.44 543.34" stroke="rgba(239, 92, 84, 1)" stroke-width="1.5"></path><path d="M941.96 395.61L842.96 540.42" stroke="rgba(239, 92, 84, 1)" stroke-width="1.5"></path><path d="M1010.44 543.34L1010.44 543.34" stroke="rgba(239, 92, 84, 1)" stroke-width="1.5"></path><path d="M1010.44 543.34L1122.92 552.68" stroke="rgba(239, 92, 84, 1)" stroke-width="1.5"></path><path d="M1010.44 543.34L842.96 540.42" stroke="rgba(239, 92, 84, 1)" stroke-width="1.5"></path><path d="M1010.44 543.34L1105.63 681.9" stroke="rgba(239, 92, 84, 1)" stroke-width="1.5"></path><path d="M1128.64 -51.33L1128.64 -51.33" stroke="rgba(239, 92, 84, 1)" stroke-width="1.5"></path><path d="M1128.64 -51.33L1128.35 74.94" stroke="rgba(239, 92, 84, 1)" stroke-width="1.5"></path><path d="M1128.64 -51.33L1243.19 -111.69" stroke="rgba(239, 92, 84, 1)" stroke-width="1.5"></path><path d="M1128.64 -51.33L981.26 -42.47" stroke="rgba(239, 92, 84, 1)" stroke-width="1.5"></path><path d="M1128.35 74.94L1128.35 74.94" stroke="rgba(239, 92, 84, 1)" stroke-width="1.5"></path><path d="M1128.47 245.69L1128.47 245.69" stroke="rgba(239, 92, 84, 1)" stroke-width="1.5"></path><path d="M1128.47 245.69L1131.94 397.87" stroke="rgba(239, 92, 84, 1)" stroke-width="1.5"></path><path d="M1128.47 245.69L1128.35 74.94" stroke="rgba(239, 92, 84, 1)" stroke-width="1.5"></path><path d="M1131.94 397.87L1131.94 397.87" stroke="rgba(239, 92, 84, 1)" stroke-width="1.5"></path><path d="M1131.94 397.87L1122.92 552.68" stroke="rgba(239, 92, 84, 1)" stroke-width="1.5"></path><path d="M1131.94 397.87L1246.34 518.9" stroke="rgba(239, 92, 84, 1)" stroke-width="1.5"></path><path d="M1131.94 397.87L1299.77 359.44" stroke="rgba(239, 92, 84, 1)" stroke-width="1.5"></path><path d="M1131.94 397.87L1010.44 543.34" stroke="rgba(239, 92, 84, 1)" stroke-width="1.5"></path><path d="M1131.94 397.87L941.96 395.61" stroke="rgba(239, 92, 84, 1)" stroke-width="1.5"></path><path d="M1122.92 552.68L1122.92 552.68" stroke="rgba(239, 92, 84, 1)" stroke-width="1.5"></path><path d="M1122.92 552.68L1246.34 518.9" stroke="rgba(239, 92, 84, 1)" stroke-width="1.5"></path><path d="M1122.92 552.68L1105.63 681.9" stroke="rgba(239, 92, 84, 1)" stroke-width="1.5"></path><path d="M1122.92 552.68L1274.4 706.02" stroke="rgba(239, 92, 84, 1)" stroke-width="1.5"></path><path d="M1105.63 681.9L1105.63 681.9" stroke="rgba(239, 92, 84, 1)" stroke-width="1.5"></path><path d="M1105.63 681.9L1274.4 706.02" stroke="rgba(239, 92, 84, 1)" stroke-width="1.5"></path><path d="M1105.63 681.9L1246.34 518.9" stroke="rgba(239, 92, 84, 1)" stroke-width="1.5"></path><path d="M1243.19 -111.69L1243.19 -111.69" stroke="rgba(239, 92, 84, 1)" stroke-width="1.5"></path><path d="M1243.19 -111.69L1456.49 -105.78" stroke="rgba(239, 92, 84, 1)" stroke-width="1.5"></path><path d="M1243.19 -111.69L1128.35 74.94" stroke="rgba(239, 92, 84, 1)" stroke-width="1.5"></path><path d="M1281.46 107.42L1281.46 107.42" stroke="rgba(239, 92, 84, 1)" stroke-width="1.5"></path><path d="M1281.46 107.42L1305.04 192.95" stroke="rgba(239, 92, 84, 1)" stroke-width="1.5"></path><path d="M1281.46 107.42L1128.35 74.94" stroke="rgba(239, 92, 84, 1)" stroke-width="1.5"></path><path d="M1281.46 107.42L1128.47 245.69" stroke="rgba(239, 92, 84, 1)" stroke-width="1.5"></path><path d="M1281.46 107.42L1128.64 -51.33" stroke="rgba(239, 92, 84, 1)" stroke-width="1.5"></path><path d="M1281.46 107.42L1243.19 -111.69" stroke="rgba(239, 92, 84, 1)" stroke-width="1.5"></path><path d="M1305.04 192.95L1305.04 192.95" stroke="rgba(239, 92, 84, 1)" stroke-width="1.5"></path><path d="M1305.04 192.95L1299.77 359.44" stroke="rgba(239, 92, 84, 1)" stroke-width="1.5"></path><path d="M1305.04 192.95L1461.12 253.3" stroke="rgba(239, 92, 84, 1)" stroke-width="1.5"></path><path d="M1305.04 192.95L1128.47 245.69" stroke="rgba(239, 92, 84, 1)" stroke-width="1.5"></path><path d="M1305.04 192.95L1128.35 74.94" stroke="rgba(239, 92, 84, 1)" stroke-width="1.5"></path><path d="M1299.77 359.44L1299.77 359.44" stroke="rgba(239, 92, 84, 1)" stroke-width="1.5"></path><path d="M1299.77 359.44L1246.34 518.9" stroke="rgba(239, 92, 84, 1)" stroke-width="1.5"></path><path d="M1299.77 359.44L1461.12 253.3" stroke="rgba(239, 92, 84, 1)" stroke-width="1.5"></path><path d="M1299.77 359.44L1128.47 245.69" stroke="rgba(239, 92, 84, 1)" stroke-width="1.5"></path><path d="M1299.77 359.44L1459.92 507.69" stroke="rgba(239, 92, 84, 1)" stroke-width="1.5"></path><path d="M1246.34 518.9L1246.34 518.9" stroke="rgba(239, 92, 84, 1)" stroke-width="1.5"></path><path d="M1246.34 518.9L1274.4 706.02" stroke="rgba(239, 92, 84, 1)" stroke-width="1.5"></path><path d="M1246.34 518.9L1459.92 507.69" stroke="rgba(239, 92, 84, 1)" stroke-width="1.5"></path><path d="M1274.4 706.02L1274.4 706.02" stroke="rgba(239, 92, 84, 1)" stroke-width="1.5"></path><path d="M1274.4 706.02L1442.89 673.55" stroke="rgba(239, 92, 84, 1)" stroke-width="1.5"></path><path d="M1274.4 706.02L1459.92 507.69" stroke="rgba(239, 92, 84, 1)" stroke-width="1.5"></path><path d="M1274.4 706.02L1010.44 543.34" stroke="rgba(239, 92, 84, 1)" stroke-width="1.5"></path><path d="M1456.49 -105.78L1456.49 -105.78" stroke="rgba(239, 92, 84, 1)" stroke-width="1.5"></path><path d="M1456.49 -105.78L1590.09 79.56" stroke="rgba(239, 92, 84, 1)" stroke-width="1.5"></path><path d="M1461.12 253.3L1461.12 253.3" stroke="rgba(239, 92, 84, 1)" stroke-width="1.5"></path><path d="M1461.12 253.3L1557.43 221.62" stroke="rgba(239, 92, 84, 1)" stroke-width="1.5"></path><path d="M1461.12 253.3L1556.12 374.45" stroke="rgba(239, 92, 84, 1)" stroke-width="1.5"></path><path d="M1461.12 253.3L1590.09 79.56" stroke="rgba(239, 92, 84, 1)" stroke-width="1.5"></path><path d="M1461.12 253.3L1281.46 107.42" stroke="rgba(239, 92, 84, 1)" stroke-width="1.5"></path><path d="M1459.92 507.69L1459.92 507.69" stroke="rgba(239, 92, 84, 1)" stroke-width="1.5"></path><path d="M1459.92 507.69L1544.33 489.61" stroke="rgba(239, 92, 84, 1)" stroke-width="1.5"></path><path d="M1459.92 507.69L1556.12 374.45" stroke="rgba(239, 92, 84, 1)" stroke-width="1.5"></path><path d="M1459.92 507.69L1442.89 673.55" stroke="rgba(239, 92, 84, 1)" stroke-width="1.5"></path><path d="M1459.92 507.69L1606 710" stroke="rgba(239, 92, 84, 1)" stroke-width="1.5"></path><path d="M1442.89 673.55L1442.89 673.55" stroke="rgba(239, 92, 84, 1)" stroke-width="1.5"></path><path d="M1442.89 673.55L1606 710" stroke="rgba(239, 92, 84, 1)" stroke-width="1.5"></path><path d="M1590.09 79.56L1590.09 79.56" stroke="rgba(239, 92, 84, 1)" stroke-width="1.5"></path><path d="M1590.09 79.56L1557.43 221.62" stroke="rgba(239, 92, 84, 1)" stroke-width="1.5"></path><path d="M1557.43 221.62L1557.43 221.62" stroke="rgba(239, 92, 84, 1)" stroke-width="1.5"></path><path d="M1557.43 221.62L1556.12 374.45" stroke="rgba(239, 92, 84, 1)" stroke-width="1.5"></path><path d="M1556.12 374.45L1556.12 374.45" stroke="rgba(239, 92, 84, 1)" stroke-width="1.5"></path><path d="M1556.12 374.45L1544.33 489.61" stroke="rgba(239, 92, 84, 1)" stroke-width="1.5"></path><path d="M1544.33 489.61L1544.33 489.61" stroke="rgba(239, 92, 84, 1)" stroke-width="1.5"></path><path d="M1544.33 489.61L1442.89 673.55" stroke="rgba(239, 92, 84, 1)" stroke-width="1.5"></path><path d="M1544.33 489.61L1606 710" stroke="rgba(239, 92, 84, 1)" stroke-width="1.5"></path><path d="M1606 710L1606 710" stroke="rgba(239, 92, 84, 1)" stroke-width="1.5"></path><path d="M1606 710L1274.4 706.02" stroke="rgba(239, 92, 84, 1)" stroke-width="1.5"></path><path d="M1606 710L1556.12 374.45" stroke="rgba(239, 92, 84, 1)" stroke-width="1.5"></path><circle r="5" cx="-91.95" cy="340.79" fill="rgba(239, 92, 84, 1)"></circle><circle r="5" cx="-95.52" cy="549.03" fill="rgba(239, 92, 84, 1)"></circle><circle r="5" cx="-81.66" cy="651.61" fill="rgba(239, 92, 84, 1)"></circle><circle r="5" cx="62.32" cy="396.16" fill="rgba(239, 92, 84, 1)"></circle><circle r="5" cx="49.41" cy="551.96" fill="rgba(239, 92, 84, 1)"></circle><circle r="5" cx="48.61" cy="661.79" fill="rgba(239, 92, 84, 1)"></circle><circle r="5" cx="242.6" cy="396.14" fill="rgba(239, 92, 84, 1)"></circle><circle r="5" cx="202.69" cy="537.37" fill="rgba(239, 92, 84, 1)"></circle><circle r="5" cx="188.49" cy="687.06" fill="rgba(239, 92, 84, 1)"></circle><circle r="5" cx="378.71" cy="493.27" fill="rgba(239, 92, 84, 1)"></circle><circle r="5" cx="345.65" cy="684.88" fill="rgba(239, 92, 84, 1)"></circle><circle r="5" cx="533.74" cy="341.09" fill="rgba(239, 92, 84, 1)"></circle><circle r="5" cx="515.96" cy="656.97" fill="rgba(239, 92, 84, 1)"></circle><circle r="5" cx="648.21" cy="226.47" fill="rgba(239, 92, 84, 1)"></circle><circle r="5" cx="684.68" cy="402.21" fill="rgba(239, 92, 84, 1)"></circle><circle r="5" cx="682.21" cy="515.06" fill="rgba(239, 92, 84, 1)"></circle><circle r="5" cx="674.02" cy="711.68" fill="rgba(239, 92, 84, 1)"></circle><circle r="5" cx="853.15" cy="84.65" fill="rgba(239, 92, 84, 1)"></circle><circle r="5" cx="860.08" cy="240.16" fill="rgba(239, 92, 84, 1)"></circle><circle r="5" cx="837.97" cy="407.55" fill="rgba(239, 92, 84, 1)"></circle><circle r="5" cx="842.96" cy="540.42" fill="rgba(239, 92, 84, 1)"></circle><circle r="5" cx="813.4" cy="661.5" fill="rgba(239, 92, 84, 1)"></circle><circle r="5" cx="981.26" cy="-42.47" fill="rgba(239, 92, 84, 1)"></circle><circle r="5" cx="1009.92" cy="65.9" fill="rgba(239, 92, 84, 1)"></circle><circle r="5" cx="955.69" cy="254.79" fill="rgba(239, 92, 84, 1)"></circle><circle r="5" cx="941.96" cy="395.61" fill="rgba(239, 92, 84, 1)"></circle><circle r="5" cx="1010.44" cy="543.34" fill="rgba(239, 92, 84, 1)"></circle><circle r="5" cx="1128.64" cy="-51.33" fill="rgba(239, 92, 84, 1)"></circle><circle r="5" cx="1128.35" cy="74.94" fill="rgba(239, 92, 84, 1)"></circle><circle r="5" cx="1128.47" cy="245.69" fill="rgba(239, 92, 84, 1)"></circle><circle r="5" cx="1131.94" cy="397.87" fill="rgba(239, 92, 84, 1)"></circle><circle r="5" cx="1122.92" cy="552.68" fill="rgba(239, 92, 84, 1)"></circle><circle r="5" cx="1105.63" cy="681.9" fill="rgba(239, 92, 84, 1)"></circle><circle r="5" cx="1243.19" cy="-111.69" fill="rgba(239, 92, 84, 1)"></circle><circle r="5" cx="1281.46" cy="107.42" fill="rgba(239, 92, 84, 1)"></circle><circle r="5" cx="1305.04" cy="192.95" fill="rgba(239, 92, 84, 1)"></circle><circle r="5" cx="1299.77" cy="359.44" fill="rgba(239, 92, 84, 1)"></circle><circle r="5" cx="1246.34" cy="518.9" fill="rgba(239, 92, 84, 1)"></circle><circle r="5" cx="1274.4" cy="706.02" fill="rgba(239, 92, 84, 1)"></circle><circle r="5" cx="1456.49" cy="-105.78" fill="rgba(239, 92, 84, 1)"></circle><circle r="5" cx="1461.12" cy="253.3" fill="rgba(239, 92, 84, 1)"></circle><circle r="5" cx="1459.92" cy="507.69" fill="rgba(239, 92, 84, 1)"></circle><circle r="5" cx="1442.89" cy="673.55" fill="rgba(239, 92, 84, 1)"></circle><circle r="5" cx="1590.09" cy="79.56" fill="rgba(239, 92, 84, 1)"></circle><circle r="5" cx="1557.43" cy="221.62" fill="rgba(239, 92, 84, 1)"></circle><circle r="5" cx="1556.12" cy="374.45" fill="rgba(239, 92, 84, 1)"></circle><circle r="5" cx="1544.33" cy="489.61" fill="rgba(239, 92, 84, 1)"></circle><circle r="5" cx="1606" cy="710" fill="rgba(239, 92, 84, 1)"></circle><path d="M81.17 685.49L81.17 685.49" stroke="hsl(3.1000000000000227, 82.9%, 82.3%)" stroke-width="1.5"></path><path d="M81.17 685.49L110.59 526.52" stroke="hsl(3.1000000000000227, 82.9%, 82.3%)" stroke-width="1.5"></path><path d="M81.17 685.49L188.44 542.33" stroke="hsl(3.1000000000000227, 82.9%, 82.3%)" stroke-width="1.5"></path><path d="M81.17 685.49L-107 659.52" stroke="hsl(3.1000000000000227, 82.9%, 82.3%)" stroke-width="1.5"></path><path d="M81.17 685.49L-78.67 549.37" stroke="hsl(3.1000000000000227, 82.9%, 82.3%)" stroke-width="1.5"></path><path d="M81.17 685.49L386.83 683.7" stroke="hsl(3.1000000000000227, 82.9%, 82.3%)" stroke-width="1.5"></path><path d="M503.23 669.62L503.23 669.62" stroke="hsl(3.1000000000000227, 82.9%, 82.3%)" stroke-width="1.5"></path><path d="M503.23 669.62L386.83 683.7" stroke="hsl(3.1000000000000227, 82.9%, 82.3%)" stroke-width="1.5"></path><path d="M503.23 669.62L399.4 499.09" stroke="hsl(3.1000000000000227, 82.9%, 82.3%)" stroke-width="1.5"></path><path d="M503.23 669.62L699.32 505.35" stroke="hsl(3.1000000000000227, 82.9%, 82.3%)" stroke-width="1.5"></path><path d="M503.23 669.62L801.93 661.94" stroke="hsl(3.1000000000000227, 82.9%, 82.3%)" stroke-width="1.5"></path><path d="M503.23 669.62L188.44 542.33" stroke="hsl(3.1000000000000227, 82.9%, 82.3%)" stroke-width="1.5"></path><path d="M503.23 669.62L815.28 530.46" stroke="hsl(3.1000000000000227, 82.9%, 82.3%)" stroke-width="1.5"></path><path d="M815.28 530.46L815.28 530.46" stroke="hsl(3.1000000000000227, 82.9%, 82.3%)" stroke-width="1.5"></path><path d="M815.28 530.46L699.32 505.35" stroke="hsl(3.1000000000000227, 82.9%, 82.3%)" stroke-width="1.5"></path><path d="M815.28 530.46L801.93 661.94" stroke="hsl(3.1000000000000227, 82.9%, 82.3%)" stroke-width="1.5"></path><path d="M815.28 530.46L842.67 361.48" stroke="hsl(3.1000000000000227, 82.9%, 82.3%)" stroke-width="1.5"></path><path d="M815.28 530.46L999.71 518.7" stroke="hsl(3.1000000000000227, 82.9%, 82.3%)" stroke-width="1.5"></path><path d="M815.28 530.46L1010.38 388.05" stroke="hsl(3.1000000000000227, 82.9%, 82.3%)" stroke-width="1.5"></path><path d="M815.28 530.46L984.58 705.87" stroke="hsl(3.1000000000000227, 82.9%, 82.3%)" stroke-width="1.5"></path><path d="M999.71 518.7L999.71 518.7" stroke="hsl(3.1000000000000227, 82.9%, 82.3%)" stroke-width="1.5"></path><path d="M999.71 518.7L1128.05 526.67" stroke="hsl(3.1000000000000227, 82.9%, 82.3%)" stroke-width="1.5"></path><path d="M1254.63 78.73L1254.63 78.73" stroke="hsl(3.1000000000000227, 82.9%, 82.3%)" stroke-width="1.5"></path><path d="M1254.63 78.73L1154.4 85.69" stroke="hsl(3.1000000000000227, 82.9%, 82.3%)" stroke-width="1.5"></path><path d="M1254.63 78.73L1158.6 204" stroke="hsl(3.1000000000000227, 82.9%, 82.3%)" stroke-width="1.5"></path><path d="M1254.63 78.73L1284.6 -92.63" stroke="hsl(3.1000000000000227, 82.9%, 82.3%)" stroke-width="1.5"></path><path d="M1451.92 191.16L1451.92 191.16" stroke="hsl(3.1000000000000227, 82.9%, 82.3%)" stroke-width="1.5"></path><path d="M1451.92 191.16L1575.85 236.58" stroke="hsl(3.1000000000000227, 82.9%, 82.3%)" stroke-width="1.5"></path><path d="M1451.92 191.16L1434.35 40.76" stroke="hsl(3.1000000000000227, 82.9%, 82.3%)" stroke-width="1.5"></path><path d="M1451.92 191.16L1302.29 254.32" stroke="hsl(3.1000000000000227, 82.9%, 82.3%)" stroke-width="1.5"></path><path d="M1451.92 191.16L1605.45 88.1" stroke="hsl(3.1000000000000227, 82.9%, 82.3%)" stroke-width="1.5"></path><path d="M1451.92 191.16L1562.28 346.25" stroke="hsl(3.1000000000000227, 82.9%, 82.3%)" stroke-width="1.5"></path><path d="M1451.92 191.16L1438.91 395.89" stroke="hsl(3.1000000000000227, 82.9%, 82.3%)" stroke-width="1.5"></path><path d="M1605.45 88.1L1605.45 88.1" stroke="hsl(3.1000000000000227, 82.9%, 82.3%)" stroke-width="1.5"></path><path d="M1605.45 88.1L1575.85 236.58" stroke="hsl(3.1000000000000227, 82.9%, 82.3%)" stroke-width="1.5"></path><path d="M1605.45 88.1L1434.35 40.76" stroke="hsl(3.1000000000000227, 82.9%, 82.3%)" stroke-width="1.5"></path><path d="M1605.45 88.1L1590.95 -111.67" stroke="hsl(3.1000000000000227, 82.9%, 82.3%)" stroke-width="1.5"></path><path d="M1605.45 88.1L1452.9 -42.88" stroke="hsl(3.1000000000000227, 82.9%, 82.3%)" stroke-width="1.5"></path><path d="M1605.45 88.1L1562.28 346.25" stroke="hsl(3.1000000000000227, 82.9%, 82.3%)" stroke-width="1.5"></path><path d="M1575.85 236.58L1575.85 236.58" stroke="hsl(3.1000000000000227, 82.9%, 82.3%)" stroke-width="1.5"></path><path d="M1575.85 236.58L1562.28 346.25" stroke="hsl(3.1000000000000227, 82.9%, 82.3%)" stroke-width="1.5"></path><path d="M1575.85 236.58L1438.91 395.89" stroke="hsl(3.1000000000000227, 82.9%, 82.3%)" stroke-width="1.5"></path><path d="M1575.85 236.58L1434.35 40.76" stroke="hsl(3.1000000000000227, 82.9%, 82.3%)" stroke-width="1.5"></path><path d="M1571.53 547.06L1571.53 547.06" stroke="hsl(3.1000000000000227, 82.9%, 82.3%)" stroke-width="1.5"></path><path d="M1571.53 547.06L1608.37 683.73" stroke="hsl(3.1000000000000227, 82.9%, 82.3%)" stroke-width="1.5"></path><path d="M1571.53 547.06L1396.11 517.01" stroke="hsl(3.1000000000000227, 82.9%, 82.3%)" stroke-width="1.5"></path><path d="M1571.53 547.06L1562.28 346.25" stroke="hsl(3.1000000000000227, 82.9%, 82.3%)" stroke-width="1.5"></path><path d="M1608.37 683.73L1608.37 683.73" stroke="hsl(3.1000000000000227, 82.9%, 82.3%)" stroke-width="1.5"></path><path d="M1608.37 683.73L1409 703.39" stroke="hsl(3.1000000000000227, 82.9%, 82.3%)" stroke-width="1.5"></path><path d="M1608.37 683.73L1396.11 517.01" stroke="hsl(3.1000000000000227, 82.9%, 82.3%)" stroke-width="1.5"></path><path d="M1608.37 683.73L1299.43 687.2" stroke="hsl(3.1000000000000227, 82.9%, 82.3%)" stroke-width="1.5"></path><path d="M-78.67 549.37L-78.67 549.37" stroke="hsl(3.1000000000000227, 82.9%, 82.3%)" stroke-width="1.5"></path><path d="M-78.67 549.37L-107 659.52" stroke="hsl(3.1000000000000227, 82.9%, 82.3%)" stroke-width="1.5"></path><path d="M-78.67 549.37L110.59 526.52" stroke="hsl(3.1000000000000227, 82.9%, 82.3%)" stroke-width="1.5"></path><path d="M-78.67 549.37L188.44 542.33" stroke="hsl(3.1000000000000227, 82.9%, 82.3%)" stroke-width="1.5"></path><path d="M-107 659.52L-107 659.52" stroke="hsl(3.1000000000000227, 82.9%, 82.3%)" stroke-width="1.5"></path><path d="M-107 659.52L110.59 526.52" stroke="hsl(3.1000000000000227, 82.9%, 82.3%)" stroke-width="1.5"></path><path d="M-107 659.52L188.44 542.33" stroke="hsl(3.1000000000000227, 82.9%, 82.3%)" stroke-width="1.5"></path><path d="M-107 659.52L386.83 683.7" stroke="hsl(3.1000000000000227, 82.9%, 82.3%)" stroke-width="1.5"></path><path d="M-107 659.52L399.4 499.09" stroke="hsl(3.1000000000000227, 82.9%, 82.3%)" stroke-width="1.5"></path><path d="M110.59 526.52L110.59 526.52" stroke="hsl(3.1000000000000227, 82.9%, 82.3%)" stroke-width="1.5"></path><path d="M110.59 526.52L188.44 542.33" stroke="hsl(3.1000000000000227, 82.9%, 82.3%)" stroke-width="1.5"></path><path d="M110.59 526.52L399.4 499.09" stroke="hsl(3.1000000000000227, 82.9%, 82.3%)" stroke-width="1.5"></path><path d="M188.44 542.33L188.44 542.33" stroke="hsl(3.1000000000000227, 82.9%, 82.3%)" stroke-width="1.5"></path><path d="M188.44 542.33L399.4 499.09" stroke="hsl(3.1000000000000227, 82.9%, 82.3%)" stroke-width="1.5"></path><path d="M188.44 542.33L386.83 683.7" stroke="hsl(3.1000000000000227, 82.9%, 82.3%)" stroke-width="1.5"></path><path d="M399.4 499.09L399.4 499.09" stroke="hsl(3.1000000000000227, 82.9%, 82.3%)" stroke-width="1.5"></path><path d="M399.4 499.09L386.83 683.7" stroke="hsl(3.1000000000000227, 82.9%, 82.3%)" stroke-width="1.5"></path><path d="M386.83 683.7L386.83 683.7" stroke="hsl(3.1000000000000227, 82.9%, 82.3%)" stroke-width="1.5"></path><path d="M699.32 505.35L699.32 505.35" stroke="hsl(3.1000000000000227, 82.9%, 82.3%)" stroke-width="1.5"></path><path d="M699.32 505.35L801.93 661.94" stroke="hsl(3.1000000000000227, 82.9%, 82.3%)" stroke-width="1.5"></path><path d="M699.32 505.35L842.67 361.48" stroke="hsl(3.1000000000000227, 82.9%, 82.3%)" stroke-width="1.5"></path><path d="M699.32 505.35L399.4 499.09" stroke="hsl(3.1000000000000227, 82.9%, 82.3%)" stroke-width="1.5"></path><path d="M699.32 505.35L999.71 518.7" stroke="hsl(3.1000000000000227, 82.9%, 82.3%)" stroke-width="1.5"></path><path d="M842.67 361.48L842.67 361.48" stroke="hsl(3.1000000000000227, 82.9%, 82.3%)" stroke-width="1.5"></path><path d="M842.67 361.48L1010.38 388.05" stroke="hsl(3.1000000000000227, 82.9%, 82.3%)" stroke-width="1.5"></path><path d="M842.67 361.48L999.71 518.7" stroke="hsl(3.1000000000000227, 82.9%, 82.3%)" stroke-width="1.5"></path><path d="M842.67 361.48L801.93 661.94" stroke="hsl(3.1000000000000227, 82.9%, 82.3%)" stroke-width="1.5"></path><path d="M801.93 661.94L801.93 661.94" stroke="hsl(3.1000000000000227, 82.9%, 82.3%)" stroke-width="1.5"></path><path d="M801.93 661.94L984.58 705.87" stroke="hsl(3.1000000000000227, 82.9%, 82.3%)" stroke-width="1.5"></path><path d="M1010.38 388.05L1010.38 388.05" stroke="hsl(3.1000000000000227, 82.9%, 82.3%)" stroke-width="1.5"></path><path d="M1010.38 388.05L999.71 518.7" stroke="hsl(3.1000000000000227, 82.9%, 82.3%)" stroke-width="1.5"></path><path d="M1010.38 388.05L1128.05 526.67" stroke="hsl(3.1000000000000227, 82.9%, 82.3%)" stroke-width="1.5"></path><path d="M984.58 705.87L984.58 705.87" stroke="hsl(3.1000000000000227, 82.9%, 82.3%)" stroke-width="1.5"></path><path d="M984.58 705.87L1115.39 691.14" stroke="hsl(3.1000000000000227, 82.9%, 82.3%)" stroke-width="1.5"></path><path d="M984.58 705.87L999.71 518.7" stroke="hsl(3.1000000000000227, 82.9%, 82.3%)" stroke-width="1.5"></path><path d="M984.58 705.87L1128.05 526.67" stroke="hsl(3.1000000000000227, 82.9%, 82.3%)" stroke-width="1.5"></path><path d="M1154.4 85.69L1154.4 85.69" stroke="hsl(3.1000000000000227, 82.9%, 82.3%)" stroke-width="1.5"></path><path d="M1154.4 85.69L1158.6 204" stroke="hsl(3.1000000000000227, 82.9%, 82.3%)" stroke-width="1.5"></path><path d="M1154.4 85.69L1284.6 -92.63" stroke="hsl(3.1000000000000227, 82.9%, 82.3%)" stroke-width="1.5"></path><path d="M1154.4 85.69L1302.29 254.32" stroke="hsl(3.1000000000000227, 82.9%, 82.3%)" stroke-width="1.5"></path><path d="M1154.4 85.69L1265.52 338.35" stroke="hsl(3.1000000000000227, 82.9%, 82.3%)" stroke-width="1.5"></path><path d="M1158.6 204L1158.6 204" stroke="hsl(3.1000000000000227, 82.9%, 82.3%)" stroke-width="1.5"></path><path d="M1158.6 204L1302.29 254.32" stroke="hsl(3.1000000000000227, 82.9%, 82.3%)" stroke-width="1.5"></path><path d="M1158.6 204L1265.52 338.35" stroke="hsl(3.1000000000000227, 82.9%, 82.3%)" stroke-width="1.5"></path><path d="M1158.6 204L1010.38 388.05" stroke="hsl(3.1000000000000227, 82.9%, 82.3%)" stroke-width="1.5"></path><path d="M1128.05 526.67L1128.05 526.67" stroke="hsl(3.1000000000000227, 82.9%, 82.3%)" stroke-width="1.5"></path><path d="M1128.05 526.67L1115.39 691.14" stroke="hsl(3.1000000000000227, 82.9%, 82.3%)" stroke-width="1.5"></path><path d="M1115.39 691.14L1115.39 691.14" stroke="hsl(3.1000000000000227, 82.9%, 82.3%)" stroke-width="1.5"></path><path d="M1115.39 691.14L1299.43 687.2" stroke="hsl(3.1000000000000227, 82.9%, 82.3%)" stroke-width="1.5"></path><path d="M1115.39 691.14L999.71 518.7" stroke="hsl(3.1000000000000227, 82.9%, 82.3%)" stroke-width="1.5"></path><path d="M1284.6 -92.63L1284.6 -92.63" stroke="hsl(3.1000000000000227, 82.9%, 82.3%)" stroke-width="1.5"></path><path d="M1284.6 -92.63L1452.9 -42.88" stroke="hsl(3.1000000000000227, 82.9%, 82.3%)" stroke-width="1.5"></path><path d="M1302.29 254.32L1302.29 254.32" stroke="hsl(3.1000000000000227, 82.9%, 82.3%)" stroke-width="1.5"></path><path d="M1302.29 254.32L1265.52 338.35" stroke="hsl(3.1000000000000227, 82.9%, 82.3%)" stroke-width="1.5"></path><path d="M1302.29 254.32L1254.63 78.73" stroke="hsl(3.1000000000000227, 82.9%, 82.3%)" stroke-width="1.5"></path><path d="M1302.29 254.32L1438.91 395.89" stroke="hsl(3.1000000000000227, 82.9%, 82.3%)" stroke-width="1.5"></path><path d="M1265.52 338.35L1265.52 338.35" stroke="hsl(3.1000000000000227, 82.9%, 82.3%)" stroke-width="1.5"></path><path d="M1265.52 338.35L1291.6 494.63" stroke="hsl(3.1000000000000227, 82.9%, 82.3%)" stroke-width="1.5"></path><path d="M1265.52 338.35L1438.91 395.89" stroke="hsl(3.1000000000000227, 82.9%, 82.3%)" stroke-width="1.5"></path><path d="M1265.52 338.35L1396.11 517.01" stroke="hsl(3.1000000000000227, 82.9%, 82.3%)" stroke-width="1.5"></path><path d="M1265.52 338.35L1128.05 526.67" stroke="hsl(3.1000000000000227, 82.9%, 82.3%)" stroke-width="1.5"></path><path d="M1291.6 494.63L1291.6 494.63" stroke="hsl(3.1000000000000227, 82.9%, 82.3%)" stroke-width="1.5"></path><path d="M1291.6 494.63L1396.11 517.01" stroke="hsl(3.1000000000000227, 82.9%, 82.3%)" stroke-width="1.5"></path><path d="M1291.6 494.63L1128.05 526.67" stroke="hsl(3.1000000000000227, 82.9%, 82.3%)" stroke-width="1.5"></path><path d="M1291.6 494.63L1438.91 395.89" stroke="hsl(3.1000000000000227, 82.9%, 82.3%)" stroke-width="1.5"></path><path d="M1299.43 687.2L1299.43 687.2" stroke="hsl(3.1000000000000227, 82.9%, 82.3%)" stroke-width="1.5"></path><path d="M1299.43 687.2L1409 703.39" stroke="hsl(3.1000000000000227, 82.9%, 82.3%)" stroke-width="1.5"></path><path d="M1452.9 -42.88L1452.9 -42.88" stroke="hsl(3.1000000000000227, 82.9%, 82.3%)" stroke-width="1.5"></path><path d="M1452.9 -42.88L1434.35 40.76" stroke="hsl(3.1000000000000227, 82.9%, 82.3%)" stroke-width="1.5"></path><path d="M1452.9 -42.88L1590.95 -111.67" stroke="hsl(3.1000000000000227, 82.9%, 82.3%)" stroke-width="1.5"></path><path d="M1452.9 -42.88L1254.63 78.73" stroke="hsl(3.1000000000000227, 82.9%, 82.3%)" stroke-width="1.5"></path><path d="M1452.9 -42.88L1451.92 191.16" stroke="hsl(3.1000000000000227, 82.9%, 82.3%)" stroke-width="1.5"></path><path d="M1434.35 40.76L1434.35 40.76" stroke="hsl(3.1000000000000227, 82.9%, 82.3%)" stroke-width="1.5"></path><path d="M1438.91 395.89L1438.91 395.89" stroke="hsl(3.1000000000000227, 82.9%, 82.3%)" stroke-width="1.5"></path><path d="M1438.91 395.89L1396.11 517.01" stroke="hsl(3.1000000000000227, 82.9%, 82.3%)" stroke-width="1.5"></path><path d="M1438.91 395.89L1562.28 346.25" stroke="hsl(3.1000000000000227, 82.9%, 82.3%)" stroke-width="1.5"></path><path d="M1438.91 395.89L1571.53 547.06" stroke="hsl(3.1000000000000227, 82.9%, 82.3%)" stroke-width="1.5"></path><path d="M1396.11 517.01L1396.11 517.01" stroke="hsl(3.1000000000000227, 82.9%, 82.3%)" stroke-width="1.5"></path><path d="M1409 703.39L1409 703.39" stroke="hsl(3.1000000000000227, 82.9%, 82.3%)" stroke-width="1.5"></path><path d="M1409 703.39L1396.11 517.01" stroke="hsl(3.1000000000000227, 82.9%, 82.3%)" stroke-width="1.5"></path><path d="M1590.95 -111.67L1590.95 -111.67" stroke="hsl(3.1000000000000227, 82.9%, 82.3%)" stroke-width="1.5"></path><path d="M1590.95 -111.67L1434.35 40.76" stroke="hsl(3.1000000000000227, 82.9%, 82.3%)" stroke-width="1.5"></path><path d="M1590.95 -111.67L1284.6 -92.63" stroke="hsl(3.1000000000000227, 82.9%, 82.3%)" stroke-width="1.5"></path><path d="M1590.95 -111.67L1451.92 191.16" stroke="hsl(3.1000000000000227, 82.9%, 82.3%)" stroke-width="1.5"></path><path d="M1590.95 -111.67L1575.85 236.58" stroke="hsl(3.1000000000000227, 82.9%, 82.3%)" stroke-width="1.5"></path><path d="M1562.28 346.25L1562.28 346.25" stroke="hsl(3.1000000000000227, 82.9%, 82.3%)" stroke-width="1.5"></path><circle r="25" cx="81.17" cy="685.49" fill="url(&quot;#SvgjsRadialGradient1007&quot;)"></circle><circle r="25" cx="503.23" cy="669.62" fill="url(&quot;#SvgjsRadialGradient1007&quot;)"></circle><circle r="25" cx="815.28" cy="530.46" fill="url(&quot;#SvgjsRadialGradient1007&quot;)"></circle><circle r="25" cx="999.71" cy="518.7" fill="url(&quot;#SvgjsRadialGradient1007&quot;)"></circle><circle r="25" cx="1254.63" cy="78.73" fill="url(&quot;#SvgjsRadialGradient1007&quot;)"></circle><circle r="25" cx="1451.92" cy="191.16" fill="url(&quot;#SvgjsRadialGradient1007&quot;)"></circle><circle r="25" cx="1605.45" cy="88.1" fill="url(&quot;#SvgjsRadialGradient1007&quot;)"></circle><circle r="25" cx="1575.85" cy="236.58" fill="url(&quot;#SvgjsRadialGradient1007&quot;)"></circle><circle r="25" cx="1571.53" cy="547.06" fill="url(&quot;#SvgjsRadialGradient1007&quot;)"></circle><circle r="25" cx="1608.37" cy="683.73" fill="url(&quot;#SvgjsRadialGradient1007&quot;)"></circle><circle r="5" cx="-78.67" cy="549.37" fill="#f7aeaa"></circle><circle r="5" cx="-107" cy="659.52" fill="#f7aeaa"></circle><circle r="5" cx="110.59" cy="526.52" fill="#f7aeaa"></circle><circle r="5" cx="188.44" cy="542.33" fill="#f7aeaa"></circle><circle r="5" cx="399.4" cy="499.09" fill="#f7aeaa"></circle><circle r="5" cx="386.83" cy="683.7" fill="#f7aeaa"></circle><circle r="5" cx="699.32" cy="505.35" fill="#f7aeaa"></circle><circle r="5" cx="842.67" cy="361.48" fill="#f7aeaa"></circle><circle r="5" cx="801.93" cy="661.94" fill="#f7aeaa"></circle><circle r="5" cx="1010.38" cy="388.05" fill="#f7aeaa"></circle><circle r="5" cx="984.58" cy="705.87" fill="#f7aeaa"></circle><circle r="5" cx="1154.4" cy="85.69" fill="#f7aeaa"></circle><circle r="5" cx="1158.6" cy="204" fill="#f7aeaa"></circle><circle r="5" cx="1128.05" cy="526.67" fill="#f7aeaa"></circle><circle r="5" cx="1115.39" cy="691.14" fill="#f7aeaa"></circle><circle r="5" cx="1284.6" cy="-92.63" fill="#f7aeaa"></circle><circle r="5" cx="1302.29" cy="254.32" fill="#f7aeaa"></circle><circle r="5" cx="1265.52" cy="338.35" fill="#f7aeaa"></circle><circle r="5" cx="1291.6" cy="494.63" fill="#f7aeaa"></circle><circle r="5" cx="1299.43" cy="687.2" fill="#f7aeaa"></circle><circle r="5" cx="1452.9" cy="-42.88" fill="#f7aeaa"></circle><circle r="5" cx="1434.35" cy="40.76" fill="#f7aeaa"></circle><circle r="5" cx="1438.91" cy="395.89" fill="#f7aeaa"></circle><circle r="5" cx="1396.11" cy="517.01" fill="#f7aeaa"></circle><circle r="5" cx="1409" cy="703.39" fill="#f7aeaa"></circle><circle r="5" cx="1590.95" cy="-111.67" fill="#f7aeaa"></circle><circle r="5" cx="1562.28" cy="346.25" fill="#f7aeaa"></circle></g><defs><mask id="SvgjsMask1006"><rect width="1440" height="560" fill="#ffffff"></rect></mask><radialGradient id="SvgjsRadialGradient1007"><stop stop-color="#ffffff" offset="0.1"></stop><stop stop-color="rgba(239, 92, 84, 1)" offset="0.2"></stop><stop stop-color="rgba(239, 92, 84, 0)" offset="1"></stop></radialGradient></defs></svg>