<svg xmlns="http://www.w3.org/2000/svg" version="1.1" xmlns:xlink="http://www.w3.org/1999/xlink" xmlns:svgjs="http://svgjs.dev/svgjs" width="1440" height="560" preserveAspectRatio="none" viewBox="0 0 1440 560"><g mask="url(&quot;#SvgjsMask1014&quot;)" fill="none"><rect width="1440" height="560" x="0" y="0" fill="rgba(255, 255, 255, 1)"></rect><path d="M0 308.8L10 303.62L20 242.95L30 184.75L40 117.72L50 171.85L60 150.2L70 192.38L80 174.84L90 114.71L100 63.27L110 53.54L120 76.09L130 57.28L140 117.45L150 150.57L160 164.2L170 193.32L180 188.05L190 213.09L200 196.98L210 211.18L220 171.95L230 163.21L240 104.17L250 131.98L260 116.86L270 57.92L280 14.12L290 41.91L300 32.05L310 7.4L320 11.2L330 78.93L340 84.9L350 34.9L360 86.89L370 134.86L380 154.05L390 205.49L400 149.01L410 174.53L420 120.89L430 120.09L440 180.62L450 148.65L460 99.43L470 156.42L480 199.62L490 184.14L500 248.48L510 192.74L520 223.27L530 286.67L540 334.87L550 350.48L560 345.63L570 301.05L580 370.07L590 429.9L600 401.67L610 465L620 436.75L630 401.65L640 448.73L650 461.47L660 397.37L670 425.05L680 411.47L690 377.62L700 361.68L710 418.06L720 468.17L730 454.62L740 459.15L750 432.54L760 366.82L770 406.52L780 366.64L790 364.63L800 380.34L810 422.72L820 415.44L830 406.69L840 387.83L850 402.81L860 435.46L870 434.69L880 378.42L890 397.98L900 416.02L910 357.43L920 378.37L930 439.86L940 468.24L950 530.25L960 479.41L970 469.88L980 507.38L990 453.12L1000 429.44L1010 454.93L1020 472.22L1030 410.48L1040 415.35L1050 356.56L1060 311.48L1070 344.89L1080 354.02L1090 303.9L1100 371.65L1110 363.41L1120 303.6L1130 329.9L1140 292.8L1150 339.86L1160 307.91L1170 333.49L1180 338.34L1190 355.58L1200 289.78L1210 296.3L1220 242.33L1230 231.27L1240 219.55L1250 212.16L1260 193.94L1270 134.29L1280 91.3L1290 96.75L1300 147.16L1310 197.06L1320 171.98L1330 237.9L1340 307.55L1350 335.81L1360 361.84L1370 294.75L1380 258.17L1390 251.86L1400 275.2L1410 296.28L1420 323.47L1430 360.48L1440 396.28" stroke="rgba(239, 92, 84, 1)" stroke-width="2"></path><path d="M0 308.8L10 303.62L20 242.95L30 184.75L40 117.72L50 171.85L60 150.2L70 192.38L80 174.84L90 114.71L100 63.27L110 53.54L120 76.09L130 57.28L140 117.45L150 150.57L160 164.2L170 193.32L180 188.05L190 213.09L200 196.98L210 211.18L220 171.95L230 163.21L240 104.17L250 131.98L260 116.86L270 57.92L280 14.12L290 41.91L300 32.05L310 7.4L320 11.2L330 78.93L340 84.9L350 34.9L360 86.89L370 134.86L380 154.05L390 205.49L400 149.01L410 174.53L420 120.89L430 120.09L440 180.62L450 148.65L460 99.43L470 156.42L480 199.62L490 184.14L500 248.48L510 192.74L520 223.27L530 286.67L540 334.87L550 350.48L560 345.63L570 301.05L580 370.07L590 429.9L600 401.67L610 465L620 436.75L630 401.65L640 448.73L650 461.47L660 397.37L670 425.05L680 411.47L690 377.62L700 361.68L710 418.06L720 468.17L730 454.62L740 459.15L750 432.54L760 366.82L770 406.52L780 366.64L790 364.63L800 380.34L810 422.72L820 415.44L830 406.69L840 387.83L850 402.81L860 435.46L870 434.69L880 378.42L890 397.98L900 416.02L910 357.43L920 378.37L930 439.86L940 468.24L950 530.25L960 479.41L970 469.88L980 507.38L990 453.12L1000 429.44L1010 454.93L1020 472.22L1030 410.48L1040 415.35L1050 356.56L1060 311.48L1070 344.89L1080 354.02L1090 303.9L1100 371.65L1110 363.41L1120 303.6L1130 329.9L1140 292.8L1150 339.86L1160 307.91L1170 333.49L1180 338.34L1190 355.58L1200 289.78L1210 296.3L1220 242.33L1230 231.27L1240 219.55L1250 212.16L1260 193.94L1270 134.29L1280 91.3L1290 96.75L1300 147.16L1310 197.06L1320 171.98L1330 237.9L1340 307.55L1350 335.81L1360 361.84L1370 294.75L1380 258.17L1390 251.86L1400 275.2L1410 296.28L1420 323.47L1430 360.48L1440 396.28L1440 560L0 560z" fill="url(&quot;#SvgjsLinearGradient1015&quot;)"></path></g><defs><mask id="SvgjsMask1014"><rect width="1440" height="560" fill="#ffffff"></rect></mask><linearGradient x1="50%" y1="0%" x2="50%" y2="100%" id="SvgjsLinearGradient1015"><stop stop-opacity="0.65" stop-color="rgba(239, 92, 84, 1)" offset="0"></stop><stop stop-opacity="0" stop-color="#ffffff" offset="0.8"></stop></linearGradient></defs></svg>